<!-- Generated by IcoMoon.io -->
<svg version="1.1" xmlns="http://www.w3.org/2000/svg" width="32" height="32" viewBox="0 0 32 32">
<title>arrow</title>
<path d="M15.447 7.858h0.245c0.075 0.665 0.641 1.184 1.326 1.184h0.905c0.736 0 1.335-0.599 1.335-1.334v-0.95c0-0.046 0.038-0.084 0.085-0.084h0.959c0.047 0 0.085 0.038 0.085 0.084v0.95c0 0.046-0.038 0.084-0.085 0.084h-0.088c-0.345 0-0.625 0.28-0.625 0.625s0.28 0.625 0.625 0.625h0.088c0.685 0 1.251-0.519 1.326-1.184h0.245c0.345 0 0.625-0.28 0.625-0.625s-0.28-0.625-0.625-0.625h-0.245c-0.075-0.665-0.641-1.184-1.326-1.184h-0.959c-0.736 0-1.335 0.598-1.335 1.334v0.95c0 0.046-0.038 0.084-0.085 0.084h-0.905c-0.047 0-0.085-0.038-0.085-0.084v-0.95c0-0.046 0.038-0.084 0.085-0.084 0.345 0 0.625-0.28 0.625-0.625s-0.28-0.625-0.625-0.625c-0.685 0-1.251 0.519-1.326 1.184h-0.245c-0.345 0-0.625 0.28-0.625 0.625s0.28 0.625 0.625 0.625z"></path>
<path d="M28.553 20.277l-3.575-4.788v-6.018c0-0.003 0-0.005 0-0.008v-3.4h2.276c0.868 0 1.574-0.706 1.574-1.574v-2.916c0-0.868-0.706-1.574-1.574-1.574h-17c-0.868 0-1.574 0.706-1.574 1.574v2.916c0 0.868 0.706 1.574 1.574 1.574h2.086v6.596l-3.096-3.307c-0.118-0.126-0.283-0.198-0.456-0.198s-0.338 0.072-0.456 0.198l-5.225 5.581c-0.17 0.182-0.216 0.447-0.117 0.676s0.324 0.376 0.574 0.376h2.365v2.063c0 0.345 0.28 0.625 0.625 0.625s0.625-0.28 0.625-0.625v-2.688c0-0.166-0.066-0.325-0.183-0.442s-0.276-0.183-0.442-0.183h-1.549l3.784-4.041 3.783 4.041h-1.738c-0.345 0-0.625 0.28-0.625 0.625v8.279h-3.030v-0.716c0-0.345-0.28-0.625-0.625-0.625s-0.625 0.28-0.625 0.625v1.341c0 0.345 0.28 0.625 0.625 0.625h4.28c0.345 0 0.625-0.28 0.625-0.625v-8.279h0.882v3.541c0 0.345 0.28 0.625 0.625 0.625h2.26c0.001 0 0.003-0 0.005-0h3.385v6.907h-0.761c-0.345 0-0.625 0.28-0.625 0.625v3.692c0 0.345 0.28 0.625 0.625 0.625h9.113c0.345 0 0.625-0.28 0.625-0.625v-3.692c0-0.345-0.28-0.625-0.625-0.625h-0.672c0.023-0.085 0.054-0.169 0.093-0.248l2.372-3.637c0.012-0.018 0.023-0.037 0.033-0.056 0.466-0.908 0.373-2.022-0.238-2.841zM26.34 30.75h-7.862v-2.442h7.862zM13.59 5.438v-0.558c0.273-0.36 0.61-0.688 1.007-0.979h8.175c0.372 0.273 0.693 0.579 0.956 0.913v4.44c-1.056 1.34-2.967 2.165-5.044 2.165-2.119 0-4.050-0.85-5.094-2.231zM23.726 18.901h-0.885c0.166-0.399 0.486-0.719 0.885-0.885zM22.709 20.151h1.017v1.364c0 0.136-0.053 0.263-0.149 0.359s-0.223 0.149-0.359 0.149c-0.281 0-0.509-0.228-0.509-0.508zM10.254 4.813c-0.179 0-0.324-0.145-0.324-0.324v-2.916c0-0.178 0.145-0.324 0.324-0.324h17c0.179 0 0.324 0.145 0.324 0.324v2.916c0 0.179-0.145 0.324-0.324 0.324h-2.276v-0.912h1.075c0.345 0 0.625-0.28 0.625-0.625s-0.28-0.625-0.625-0.625h-14.6c-0.345 0-0.625 0.28-0.625 0.625s0.28 0.625 0.625 0.625h0.885v0.912zM13.59 18.901v-0.885c0.399 0.166 0.719 0.486 0.885 0.885zM18.614 18.901h-2.834c-0.242-1.090-1.101-1.949-2.19-2.19v-0.725h0.423c0.249 0 0.474-0.148 0.573-0.376 0.062-0.143 0.067-0.3 0.021-0.442-0.028-0.085-0.074-0.166-0.138-0.234l-0.879-0.939v-3.026c1.318 1.073 3.147 1.702 5.095 1.702 1.916 0 3.728-0.614 5.044-1.662v4.633c-0.001 0.017-0.002 0.035-0.002 0.052v1.017c-0.375 0.083-0.721 0.239-1.026 0.452-0.044-0.475-0.25-0.915-0.59-1.256-0.386-0.387-0.9-0.6-1.448-0.6h-0c-1.129 0-2.047 0.918-2.047 2.047zM27.692 22.52l-2.372 3.637c-0.012 0.018-0.023 0.037-0.032 0.056-0.136 0.264-0.227 0.552-0.27 0.846h-5.154v-9.705c0-0.447 0.35-0.797 0.797-0.797 0.213 0 0.413 0.083 0.564 0.234s0.234 0.351 0.234 0.563v4.162c0 0.969 0.789 1.758 1.759 1.758 0.469 0 0.911-0.183 1.243-0.515s0.515-0.774 0.515-1.243v-1.945c0.001-0.015 0.002-0.030 0.002-0.045v-1.947l2.573 3.446c0.321 0.43 0.375 1.014 0.141 1.496z"></path>
<path d="M5.975 20.742c0.099 0.237 0.339 0.394 0.597 0.385 0.25-0.008 0.478-0.17 0.565-0.405 0.092-0.248 0.017-0.535-0.188-0.703-0.208-0.17-0.509-0.187-0.735-0.042-0.252 0.161-0.351 0.489-0.239 0.764z"></path>
</svg>
