<?xml version="1.0" encoding="UTF-8" standalone="no"?><svg xmlns="http://www.w3.org/2000/svg" xmlns:xlink="http://www.w3.org/1999/xlink"><symbol id="atm" version="1.1" xmlns="http://www.w3.org/2000/svg" width="32" height="32" viewBox="0 0 32 32"><title>atm</title><path d="M4.267 8.533h5.333v4.046l-1.977 1.977c-0.1 0.1-0.156 0.236-0.156 0.377v6.933c0 0.061 0.011 0.122 0.032 0.179l2.635 7.379v2.042c0 0.295 0.239 0.533 0.533 0.533h6.4c0.295 0 0.533-0.239 0.533-0.533v-8c0-0.072-0.015-0.144-0.043-0.21l-1.282-2.99h5.591c0.295 0 0.533-0.239 0.533-0.533v-11.2h5.333v-4.267h1.067v-4.267h-25.6v4.267h1.067zM16.533 30.933h-5.333v-1.067h5.333zM16.533 28.8h-5.493l-2.507-7.026v-6.62l1.067-1.067v5.646c0 0.295 0.239 0.533 0.533 0.533h2.133v2.133h1.067v-5.333c0-0.295 0.239-0.533 0.533-0.533h0.533c0.295 0 0.533 0.239 0.533 0.533v2.667c-0 0.072 0.015 0.144 0.043 0.21l1.557 3.633zM21.333 19.2h-5.333v-2.133c0-0.884-0.716-1.6-1.6-1.6h-0.533c-0.395 0.001-0.775 0.15-1.067 0.416v-0.949h-1.067v3.2h0.533v1.067h-1.6v-12.8h1.067v7.467h1.067v-5.187c0.807 0.924 1.973 1.454 3.2 1.454s2.393-0.53 3.2-1.454v5.187h1.067v-7.467h1.067zM12.844 6.4h6.311c-0.259 1.541-1.593 2.67-3.156 2.67s-2.897-1.129-3.156-2.67zM26.667 7.467h-4.267v-1.067h1.067v-1.067h-14.933v1.067h1.067v1.067h-4.267v-3.2h21.333zM4.267 1.067h23.467v2.133h-23.467z"></path><path d="M6.4 5.333h1.067v1.067h-1.067z"></path><path d="M24.533 5.333h1.067v1.067h-1.067z"></path><path d="M19.2 17.067h-2.133v1.067h3.2v-3.2h-1.067z"></path><path d="M17.6 12.8c0-0.884-0.716-1.6-1.6-1.6s-1.6 0.716-1.6 1.6 0.716 1.6 1.6 1.6 1.6-0.716 1.6-1.6zM16 13.333c-0.295 0-0.533-0.239-0.533-0.533s0.239-0.533 0.533-0.533 0.533 0.239 0.533 0.533-0.239 0.533-0.533 0.533z"></path></symbol><symbol id="arrow" version="1.1" xmlns="http://www.w3.org/2000/svg" width="32" height="32" viewBox="0 0 32 32"><title>arrow</title><path d="M15.447 7.858h0.245c0.075 0.665 0.641 1.184 1.326 1.184h0.905c0.736 0 1.335-0.599 1.335-1.334v-0.95c0-0.046 0.038-0.084 0.085-0.084h0.959c0.047 0 0.085 0.038 0.085 0.084v0.95c0 0.046-0.038 0.084-0.085 0.084h-0.088c-0.345 0-0.625 0.28-0.625 0.625s0.28 0.625 0.625 0.625h0.088c0.685 0 1.251-0.519 1.326-1.184h0.245c0.345 0 0.625-0.28 0.625-0.625s-0.28-0.625-0.625-0.625h-0.245c-0.075-0.665-0.641-1.184-1.326-1.184h-0.959c-0.736 0-1.335 0.598-1.335 1.334v0.95c0 0.046-0.038 0.084-0.085 0.084h-0.905c-0.047 0-0.085-0.038-0.085-0.084v-0.95c0-0.046 0.038-0.084 0.085-0.084 0.345 0 0.625-0.28 0.625-0.625s-0.28-0.625-0.625-0.625c-0.685 0-1.251 0.519-1.326 1.184h-0.245c-0.345 0-0.625 0.28-0.625 0.625s0.28 0.625 0.625 0.625z"></path><path d="M28.553 20.277l-3.575-4.788v-6.018c0-0.003 0-0.005 0-0.008v-3.4h2.276c0.868 0 1.574-0.706 1.574-1.574v-2.916c0-0.868-0.706-1.574-1.574-1.574h-17c-0.868 0-1.574 0.706-1.574 1.574v2.916c0 0.868 0.706 1.574 1.574 1.574h2.086v6.596l-3.096-3.307c-0.118-0.126-0.283-0.198-0.456-0.198s-0.338 0.072-0.456 0.198l-5.225 5.581c-0.17 0.182-0.216 0.447-0.117 0.676s0.324 0.376 0.574 0.376h2.365v2.063c0 0.345 0.28 0.625 0.625 0.625s0.625-0.28 0.625-0.625v-2.688c0-0.166-0.066-0.325-0.183-0.442s-0.276-0.183-0.442-0.183h-1.549l3.784-4.041 3.783 4.041h-1.738c-0.345 0-0.625 0.28-0.625 0.625v8.279h-3.030v-0.716c0-0.345-0.28-0.625-0.625-0.625s-0.625 0.28-0.625 0.625v1.341c0 0.345 0.28 0.625 0.625 0.625h4.28c0.345 0 0.625-0.28 0.625-0.625v-8.279h0.882v3.541c0 0.345 0.28 0.625 0.625 0.625h2.26c0.001 0 0.003-0 0.005-0h3.385v6.907h-0.761c-0.345 0-0.625 0.28-0.625 0.625v3.692c0 0.345 0.28 0.625 0.625 0.625h9.113c0.345 0 0.625-0.28 0.625-0.625v-3.692c0-0.345-0.28-0.625-0.625-0.625h-0.672c0.023-0.085 0.054-0.169 0.093-0.248l2.372-3.637c0.012-0.018 0.023-0.037 0.033-0.056 0.466-0.908 0.373-2.022-0.238-2.841zM26.34 30.75h-7.862v-2.442h7.862zM13.59 5.438v-0.558c0.273-0.36 0.61-0.688 1.007-0.979h8.175c0.372 0.273 0.693 0.579 0.956 0.913v4.44c-1.056 1.34-2.967 2.165-5.044 2.165-2.119 0-4.050-0.85-5.094-2.231zM23.726 18.901h-0.885c0.166-0.399 0.486-0.719 0.885-0.885zM22.709 20.151h1.017v1.364c0 0.136-0.053 0.263-0.149 0.359s-0.223 0.149-0.359 0.149c-0.281 0-0.509-0.228-0.509-0.508zM10.254 4.813c-0.179 0-0.324-0.145-0.324-0.324v-2.916c0-0.178 0.145-0.324 0.324-0.324h17c0.179 0 0.324 0.145 0.324 0.324v2.916c0 0.179-0.145 0.324-0.324 0.324h-2.276v-0.912h1.075c0.345 0 0.625-0.28 0.625-0.625s-0.28-0.625-0.625-0.625h-14.6c-0.345 0-0.625 0.28-0.625 0.625s0.28 0.625 0.625 0.625h0.885v0.912zM13.59 18.901v-0.885c0.399 0.166 0.719 0.486 0.885 0.885zM18.614 18.901h-2.834c-0.242-1.090-1.101-1.949-2.19-2.19v-0.725h0.423c0.249 0 0.474-0.148 0.573-0.376 0.062-0.143 0.067-0.3 0.021-0.442-0.028-0.085-0.074-0.166-0.138-0.234l-0.879-0.939v-3.026c1.318 1.073 3.147 1.702 5.095 1.702 1.916 0 3.728-0.614 5.044-1.662v4.633c-0.001 0.017-0.002 0.035-0.002 0.052v1.017c-0.375 0.083-0.721 0.239-1.026 0.452-0.044-0.475-0.25-0.915-0.59-1.256-0.386-0.387-0.9-0.6-1.448-0.6h-0c-1.129 0-2.047 0.918-2.047 2.047zM27.692 22.52l-2.372 3.637c-0.012 0.018-0.023 0.037-0.032 0.056-0.136 0.264-0.227 0.552-0.27 0.846h-5.154v-9.705c0-0.447 0.35-0.797 0.797-0.797 0.213 0 0.413 0.083 0.564 0.234s0.234 0.351 0.234 0.563v4.162c0 0.969 0.789 1.758 1.759 1.758 0.469 0 0.911-0.183 1.243-0.515s0.515-0.774 0.515-1.243v-1.945c0.001-0.015 0.002-0.030 0.002-0.045v-1.947l2.573 3.446c0.321 0.43 0.375 1.014 0.141 1.496z"></path><path d="M5.975 20.742c0.099 0.237 0.339 0.394 0.597 0.385 0.25-0.008 0.478-0.17 0.565-0.405 0.092-0.248 0.017-0.535-0.188-0.703-0.208-0.17-0.509-0.187-0.735-0.042-0.252 0.161-0.351 0.489-0.239 0.764z"></path></symbol><symbol id="deposit" version="1.1" xmlns="http://www.w3.org/2000/svg" width="32" height="32" viewBox="0 0 32 32"><title>deposit</title><path d="M30.633 5.018l-14.5-4c-0.040-0.011-0.086-0.018-0.133-0.018s-0.093 0.007-0.137 0.019l0.004-0.001-14.5 4c-0.213 0.060-0.367 0.253-0.367 0.482 0 0 0 0 0 0v0 4c0 0.276 0.224 0.5 0.5 0.5h1v2.5c0.001 0.649 0.413 1.201 0.99 1.411l0.010 0.003v12.172c-0.587 0.213-0.999 0.765-1 1.414v0.5c-0.828 0.001-1.499 0.672-1.5 1.5v1c0 0.276 0.224 0.5 0.5 0.5h20v-1h-19.5v-0.5c0-0.276 0.224-0.5 0.5-0.5h19v-1h-10v-0.5c-0.001-0.649-0.413-1.201-0.99-1.411l-0.010-0.003v-12.172c0.587-0.213 0.999-0.765 1-1.414v-0.5h6v-1h-14v-1h14v-1h-15.5v-3.119l14-3.862 14 3.862v3.119h-1c-0.276 0-0.5 0.224-0.5 0.5v0 3c-0 0.184-0.1 0.345-0.248 0.432l-0.002 0.001 0.501 0.866c0.451-0.265 0.749-0.747 0.75-1.299v-2.5h1c0.276 0 0.5-0.224 0.5-0.5v0-4c0 0 0 0 0 0 0-0.229-0.154-0.422-0.363-0.481l-0.004-0.001zM3.5 27.5c0-0.276 0.224-0.5 0.5-0.5h0.586c-0.054 0.149-0.086 0.32-0.086 0.499 0 0 0 0 0 0.001v-0 0.5h-1zM5.5 12.5v-0.5h1v0.5c0 0 0 0 0 0.001 0 0.179 0.032 0.351 0.089 0.51l-0.003-0.010h-0.586c-0.276-0-0.5-0.224-0.5-0.5v-0zM6.5 28h-1v-0.5c0-0.276 0.224-0.5 0.5-0.5h0.586c-0.054 0.149-0.086 0.32-0.086 0.499 0 0 0 0 0 0.001v-0zM7.5 14v12h-1v-12zM8.5 14h1v12h-1zM5.5 14v12h-1v-12zM7.5 28v-0.5c0-0.276 0.224-0.5 0.5-0.5h2c0.276 0 0.5 0.224 0.5 0.5v0.5zM10.5 12.5c-0 0.276-0.224 0.5-0.5 0.5h-2c-0.276-0-0.5-0.224-0.5-0.5v-0.5h3zM4.5 12v0.5c0 0 0 0 0 0.001 0 0.179 0.032 0.351 0.089 0.51l-0.003-0.010h-0.586c-0.276-0-0.5-0.224-0.5-0.5v-0.5z"></path><path d="M16 3c-1.381 0-2.5 1.119-2.5 2.5s1.119 2.5 2.5 2.5c1.381 0 2.5-1.119 2.5-2.5v0c-0.002-1.38-1.12-2.498-2.5-2.5h-0zM16 7c-0.828 0-1.5-0.672-1.5-1.5s0.672-1.5 1.5-1.5c0.828 0 1.5 0.672 1.5 1.5v0c-0.001 0.828-0.672 1.499-1.5 1.5h-0z"></path><path d="M19.5 5h2v1h-2v-1z"></path><path d="M10.5 5h2v1h-2v-1z"></path><path d="M3 7h9.5v1h-9.5v-1z"></path><path d="M19.5 7h9.5v1h-9.5v-1z"></path><path d="M25.5 17c0-1.381-1.119-2.5-2.5-2.5s-2.5 1.119-2.5 2.5c0 1.381 1.119 2.5 2.5 2.5v0c1.38-0.002 2.498-1.12 2.5-2.5v-0zM21.5 17c0-0.828 0.672-1.5 1.5-1.5s1.5 0.672 1.5 1.5c0 0.828-0.672 1.5-1.5 1.5v0c-0.828-0.001-1.499-0.672-1.5-1.5v-0z"></path><path d="M22.975 25.568l1.216 2.432h-1.191c-0.276 0-0.5 0.224-0.5 0.5v0 2.5h1v-2h6v2h1v-2.5c0-0.276-0.224-0.5-0.5-0.5h-0.39l1.236-6.182c0.035-0.166 0.055-0.357 0.055-0.552 0-0.412-0.089-0.804-0.25-1.156l0.007 0.017-1.093-2.459c-0.38-0.839-1.137-1.45-2.049-1.62l-0.017-0.003v-6.545c0-0.276-0.224-0.5-0.5-0.5h-8c-0.276 0-0.5 0.224-0.5 0.5v0 15c0 0.276 0.224 0.5 0.5 0.5h3.739c0.076 0.225 0.156 0.413 0.248 0.594l-0.012-0.026zM27.5 24.5v-7.429c0.519 0.153 0.933 0.518 1.148 0.992l0.005 0.011 1.093 2.459c0.099 0.216 0.156 0.468 0.156 0.733 0 0.126-0.013 0.249-0.038 0.367l0.002-0.012-1.276 6.378h-3.281l-1.439-2.879c-0.232-0.456-0.369-0.995-0.369-1.565v-1.556c0-0.276 0.224-0.5 0.5-0.5s0.5 0.224 0.5 0.5v0 1.5c0.001 0.828 0.672 1.499 1.5 1.5h1c0.276 0 0.5-0.224 0.5-0.5v0zM25.5 23.5v-1c0.281-0.213 0.618-0.37 0.984-0.446l0.016-0.003v1.949h-0.5c-0.276-0-0.5-0.224-0.5-0.5v-0zM26.5 10v1.95c-0.982-0.208-1.742-0.968-1.947-1.933l-0.003-0.016zM19.5 10h1.95c-0.208 0.982-0.968 1.742-1.933 1.947l-0.016 0.003zM19.5 24v-1.95c0.982 0.208 1.742 0.968 1.947 1.933l0.003 0.016zM22.464 24c-0.23-1.535-1.429-2.733-2.944-2.961l-0.019-0.002v-8.073c1.535-0.23 2.733-1.429 2.961-2.944l0.002-0.019h1.073c0.23 1.535 1.429 2.733 2.944 2.961l0.019 0.002v8.072c-0.42 0.062-0.799 0.19-1.144 0.374l0.019-0.009c-0.237-0.535-0.763-0.901-1.375-0.901-0.828 0-1.5 0.671-1.5 1.5 0 0 0 0 0 0v0 1.556c0 0.148 0.008 0.297 0.023 0.444z"></path></symbol></svg>