<!-- Generated by IcoMoon.io -->
<svg version="1.1" xmlns="http://www.w3.org/2000/svg" width="32" height="32" viewBox="0 0 32 32">
<title>atm</title>
<path d="M4.267 8.533h5.333v4.046l-1.977 1.977c-0.1 0.1-0.156 0.236-0.156 0.377v6.933c0 0.061 0.011 0.122 0.032 0.179l2.635 7.379v2.042c0 0.295 0.239 0.533 0.533 0.533h6.4c0.295 0 0.533-0.239 0.533-0.533v-8c0-0.072-0.015-0.144-0.043-0.21l-1.282-2.99h5.591c0.295 0 0.533-0.239 0.533-0.533v-11.2h5.333v-4.267h1.067v-4.267h-25.6v4.267h1.067zM16.533 30.933h-5.333v-1.067h5.333zM16.533 28.8h-5.493l-2.507-7.026v-6.62l1.067-1.067v5.646c0 0.295 0.239 0.533 0.533 0.533h2.133v2.133h1.067v-5.333c0-0.295 0.239-0.533 0.533-0.533h0.533c0.295 0 0.533 0.239 0.533 0.533v2.667c-0 0.072 0.015 0.144 0.043 0.21l1.557 3.633zM21.333 19.2h-5.333v-2.133c0-0.884-0.716-1.6-1.6-1.6h-0.533c-0.395 0.001-0.775 0.15-1.067 0.416v-0.949h-1.067v3.2h0.533v1.067h-1.6v-12.8h1.067v7.467h1.067v-5.187c0.807 0.924 1.973 1.454 3.2 1.454s2.393-0.53 3.2-1.454v5.187h1.067v-7.467h1.067zM12.844 6.4h6.311c-0.259 1.541-1.593 2.67-3.156 2.67s-2.897-1.129-3.156-2.67zM26.667 7.467h-4.267v-1.067h1.067v-1.067h-14.933v1.067h1.067v1.067h-4.267v-3.2h21.333zM4.267 1.067h23.467v2.133h-23.467z"></path>
<path d="M6.4 5.333h1.067v1.067h-1.067z"></path>
<path d="M24.533 5.333h1.067v1.067h-1.067z"></path>
<path d="M19.2 17.067h-2.133v1.067h3.2v-3.2h-1.067z"></path>
<path d="M17.6 12.8c0-0.884-0.716-1.6-1.6-1.6s-1.6 0.716-1.6 1.6 0.716 1.6 1.6 1.6 1.6-0.716 1.6-1.6zM16 13.333c-0.295 0-0.533-0.239-0.533-0.533s0.239-0.533 0.533-0.533 0.533 0.239 0.533 0.533-0.239 0.533-0.533 0.533z"></path>
</svg>
